<svg width="251" height="60" viewBox="0 0 251 60" fill="none" xmlns="http://www.w3.org/2000/svg">
<path fill-rule="evenodd" clip-rule="evenodd" d="M12.5568 38.8762L16.7968 29.8914H25.9292L18.8516 26.4357L22.2763 19.5243L16.7968 18.8332L26.8425 11.2307L37.5731 31.9648L35.29 34.499H38.4863L40.395 38.8762H51.5V43.9445H41.2798C40.1816 51.121 34.0338 56.6153 26.6142 56.6153C19.1946 56.6153 13.0467 51.121 11.9485 43.9445H1.5V38.8762H12.5568ZM26.6142 51.547C21.9782 51.547 18.0928 48.3045 17.0637 43.9445H36.1646C35.1355 48.3045 31.2501 51.547 26.6142 51.547Z" fill="#5F57FF"/>
<path fill-rule="evenodd" clip-rule="evenodd" d="M12.5568 38.8762L16.7968 29.8914H25.9292L18.8516 26.4357L22.2763 19.5243L16.7968 18.8332L26.8425 11.2307L37.5731 31.9648L35.29 34.499H38.4863L40.395 38.8762H51.5V43.9445H41.2798C40.1816 51.121 34.0338 56.6153 26.6142 56.6153C19.1946 56.6153 13.0467 51.121 11.9485 43.9445H1.5V38.8762H12.5568ZM26.6142 51.547C21.9782 51.547 18.0928 48.3045 17.0637 43.9445H36.1646C35.1355 48.3045 31.2501 51.547 26.6142 51.547Z" fill="url(#paint0_linear_108_819)" fill-opacity="0.16"/>
<path d="M18.4231 2L18.9551 3.54052C19.5406 5.23579 20.8365 6.59127 22.5038 7.25228L23.8077 7.76923L22.5038 8.28618C20.8365 8.94719 19.5406 10.3027 18.9551 11.9979L18.4231 13.5385L17.891 11.9979C17.3056 10.3027 16.0096 8.94719 14.3424 8.28618L13.0385 7.76923L14.3424 7.25228C16.0096 6.59127 17.3056 5.23579 17.891 3.54052L18.4231 2Z" fill="#5F57FF"/>
<path d="M6.5 27.3845L6.57905 27.5787C7.25435 29.2378 8.619 30.5203 10.3167 31.0914L10.7308 31.2307L10.3167 31.3699C8.619 31.9411 7.25435 33.2236 6.57905 34.8826L6.5 35.0768L6.42094 34.8826C5.74565 33.2236 4.381 31.9411 2.68325 31.3699L2.26923 31.2307L2.68325 31.0914C4.381 30.5203 5.74565 29.2378 6.42094 27.5787L6.5 27.3845Z" fill="white"/>
<path d="M44.9615 20.4614L45.33 21.4572C45.9533 23.1416 47.2814 24.4697 48.9658 25.093L49.9615 25.4614L48.9658 25.8299C47.2814 26.4532 45.9533 27.7812 45.33 29.4657L44.9615 30.4614L44.5931 29.4657C43.9698 27.7812 42.6417 26.4532 40.9573 25.8299L39.9615 25.4614L40.9573 25.093C42.6417 24.4697 43.9698 23.1416 44.5931 21.4572L44.9615 20.4614Z" fill="white"/>
<path d="M73.2729 46.8076L65.2276 18.6903H71.7215L76.3757 38.2269H76.6091L81.7438 18.6903H87.3041L92.4251 38.2681H92.6722L97.3264 18.6903H103.82L95.775 46.8076H89.9813L84.6269 28.4243H84.4073L79.0666 46.8076H73.2729ZM106.892 46.8076V25.7196H112.741V46.8076H106.892ZM109.83 23.0013C108.961 23.0013 108.215 22.713 107.592 22.1363C106.979 21.5506 106.673 20.8504 106.673 20.0358C106.673 19.2303 106.979 18.5393 107.592 17.9627C108.215 17.3769 108.961 17.084 109.83 17.084C110.7 17.084 111.441 17.3769 112.054 17.9627C112.677 18.5393 112.988 19.2303 112.988 20.0358C112.988 20.8504 112.677 21.5506 112.054 22.1363C111.441 22.713 110.7 23.0013 109.83 23.0013ZM117.316 46.8076V43.3204L127.64 30.5386V30.3876H117.673V25.7196H134.683V29.5226L124.991 41.9887V42.1397H135.04V46.8076H117.316ZM145.526 47.2058C144.181 47.2058 142.982 46.9724 141.929 46.5056C140.876 46.0296 140.044 45.3294 139.43 44.405C138.826 43.4714 138.524 42.309 138.524 40.9178C138.524 39.7463 138.739 38.7623 139.169 37.966C139.6 37.1698 140.185 36.5291 140.927 36.044C141.668 35.5589 142.51 35.1928 143.453 34.9456C144.405 34.6985 145.402 34.5246 146.446 34.4239C147.672 34.2958 148.661 34.1768 149.411 34.067C150.162 33.948 150.706 33.7741 151.045 33.5453C151.384 33.3164 151.553 32.9778 151.553 32.5293V32.4469C151.553 31.5774 151.279 30.9047 150.729 30.4287C150.189 29.9528 149.421 29.7148 148.423 29.7148C147.37 29.7148 146.533 29.9482 145.91 30.415C145.288 30.8726 144.876 31.4493 144.675 32.1449L139.266 31.7056C139.54 30.4242 140.08 29.3167 140.886 28.3831C141.691 27.4404 142.73 26.7173 144.002 26.2139C145.283 25.7013 146.766 25.4451 148.45 25.4451C149.622 25.4451 150.743 25.5823 151.814 25.8569C152.894 26.1315 153.85 26.5571 154.683 27.1337C155.525 27.7104 156.189 28.4517 156.674 29.3579C157.159 30.2548 157.402 31.3303 157.402 32.5842V46.8076H151.855V43.8833H151.69C151.352 44.5423 150.899 45.1235 150.331 45.6269C149.764 46.1212 149.082 46.5102 148.286 46.7939C147.489 47.0685 146.569 47.2058 145.526 47.2058ZM147.201 43.1694C148.061 43.1694 148.821 43.0001 149.48 42.6614C150.139 42.3136 150.656 41.8468 151.031 41.261C151.407 40.6753 151.594 40.0117 151.594 39.2703V37.0325C151.411 37.1514 151.16 37.2613 150.839 37.362C150.528 37.4535 150.176 37.5404 149.782 37.6228C149.388 37.696 148.995 37.7647 148.601 37.8288C148.208 37.8837 147.851 37.934 147.53 37.9798C146.844 38.0805 146.245 38.2406 145.732 38.4603C145.219 38.68 144.821 38.9774 144.538 39.3527C144.254 39.7188 144.112 40.1764 144.112 40.7256C144.112 41.5219 144.4 42.1306 144.977 42.5516C145.563 42.9635 146.304 43.1694 147.201 43.1694ZM161.939 46.8076V25.7196H167.609V29.3991H167.829C168.213 28.0902 168.859 27.1017 169.765 26.4336C170.671 25.7563 171.714 25.4176 172.895 25.4176C173.188 25.4176 173.504 25.4359 173.842 25.4725C174.181 25.5091 174.479 25.5595 174.735 25.6235V30.8132C174.46 30.7308 174.08 30.6576 173.595 30.5935C173.11 30.5294 172.666 30.4974 172.264 30.4974C171.403 30.4974 170.634 30.685 169.957 31.0603C169.289 31.4264 168.758 31.9389 168.364 32.5979C167.98 33.2569 167.788 34.0166 167.788 34.877V46.8076H161.939ZM184.548 47.1508C182.946 47.1508 181.495 46.739 180.196 45.9152C178.905 45.0823 177.88 43.8604 177.12 42.2495C176.37 40.6295 175.994 38.6433 175.994 36.2911C175.994 33.8748 176.383 31.8657 177.161 30.264C177.939 28.6531 178.974 27.4495 180.264 26.6532C181.564 25.8478 182.987 25.4451 184.534 25.4451C185.715 25.4451 186.699 25.6464 187.486 26.0491C188.282 26.4427 188.923 26.937 189.408 27.5319C189.902 28.1177 190.277 28.6943 190.534 29.2618H190.712V18.6903H196.547V46.8076H190.781V43.4302H190.534C190.259 44.016 189.87 44.5972 189.367 45.1738C188.872 45.7413 188.227 46.2127 187.431 46.588C186.644 46.9632 185.683 47.1508 184.548 47.1508ZM186.401 42.4967C187.344 42.4967 188.14 42.2404 188.79 41.7278C189.449 41.2061 189.952 40.4785 190.3 39.5449C190.657 38.6113 190.836 37.5176 190.836 36.2636C190.836 35.0097 190.662 33.9205 190.314 32.9961C189.966 32.0717 189.463 31.3577 188.804 30.8543C188.145 30.3509 187.344 30.0992 186.401 30.0992C185.44 30.0992 184.63 30.3601 183.971 30.8818C183.312 31.4035 182.813 32.1266 182.475 33.051C182.136 33.9754 181.967 35.0463 181.967 36.2636C181.967 37.4901 182.136 38.5747 182.475 39.5174C182.822 40.451 183.321 41.1832 183.971 41.7141C184.63 42.2358 185.44 42.4967 186.401 42.4967ZM204.774 47.1646C203.868 47.1646 203.09 46.8442 202.44 46.2035C201.8 45.5537 201.479 44.7757 201.479 43.8696C201.479 42.9726 201.8 42.2038 202.44 41.5631C203.09 40.9224 203.868 40.602 204.774 40.602C205.653 40.602 206.422 40.9224 207.081 41.5631C207.74 42.2038 208.069 42.9726 208.069 43.8696C208.069 44.4737 207.914 45.0274 207.602 45.5308C207.3 46.0251 206.902 46.4232 206.408 46.7252C205.914 47.0181 205.369 47.1646 204.774 47.1646ZM217.827 46.8076H211.457L221.163 18.6903H228.824L238.517 46.8076H232.147L225.104 25.1156H224.884L217.827 46.8076ZM217.429 35.7556H232.476V40.3961H217.429V35.7556ZM247.846 18.6903V46.8076H241.901V18.6903H247.846Z" fill="#5F57FF"/>
<path d="M73.2729 46.8076L65.2276 18.6903H71.7215L76.3757 38.2269H76.6091L81.7438 18.6903H87.3041L92.4251 38.2681H92.6722L97.3264 18.6903H103.82L95.775 46.8076H89.9813L84.6269 28.4243H84.4073L79.0666 46.8076H73.2729ZM106.892 46.8076V25.7196H112.741V46.8076H106.892ZM109.83 23.0013C108.961 23.0013 108.215 22.713 107.592 22.1363C106.979 21.5506 106.673 20.8504 106.673 20.0358C106.673 19.2303 106.979 18.5393 107.592 17.9627C108.215 17.3769 108.961 17.084 109.83 17.084C110.7 17.084 111.441 17.3769 112.054 17.9627C112.677 18.5393 112.988 19.2303 112.988 20.0358C112.988 20.8504 112.677 21.5506 112.054 22.1363C111.441 22.713 110.7 23.0013 109.83 23.0013ZM117.316 46.8076V43.3204L127.64 30.5386V30.3876H117.673V25.7196H134.683V29.5226L124.991 41.9887V42.1397H135.04V46.8076H117.316ZM145.526 47.2058C144.181 47.2058 142.982 46.9724 141.929 46.5056C140.876 46.0296 140.044 45.3294 139.43 44.405C138.826 43.4714 138.524 42.309 138.524 40.9178C138.524 39.7463 138.739 38.7623 139.169 37.966C139.6 37.1698 140.185 36.5291 140.927 36.044C141.668 35.5589 142.51 35.1928 143.453 34.9456C144.405 34.6985 145.402 34.5246 146.446 34.4239C147.672 34.2958 148.661 34.1768 149.411 34.067C150.162 33.948 150.706 33.7741 151.045 33.5453C151.384 33.3164 151.553 32.9778 151.553 32.5293V32.4469C151.553 31.5774 151.279 30.9047 150.729 30.4287C150.189 29.9528 149.421 29.7148 148.423 29.7148C147.37 29.7148 146.533 29.9482 145.91 30.415C145.288 30.8726 144.876 31.4493 144.675 32.1449L139.266 31.7056C139.54 30.4242 140.08 29.3167 140.886 28.3831C141.691 27.4404 142.73 26.7173 144.002 26.2139C145.283 25.7013 146.766 25.4451 148.45 25.4451C149.622 25.4451 150.743 25.5823 151.814 25.8569C152.894 26.1315 153.85 26.5571 154.683 27.1337C155.525 27.7104 156.189 28.4517 156.674 29.3579C157.159 30.2548 157.402 31.3303 157.402 32.5842V46.8076H151.855V43.8833H151.69C151.352 44.5423 150.899 45.1235 150.331 45.6269C149.764 46.1212 149.082 46.5102 148.286 46.7939C147.489 47.0685 146.569 47.2058 145.526 47.2058ZM147.201 43.1694C148.061 43.1694 148.821 43.0001 149.48 42.6614C150.139 42.3136 150.656 41.8468 151.031 41.261C151.407 40.6753 151.594 40.0117 151.594 39.2703V37.0325C151.411 37.1514 151.16 37.2613 150.839 37.362C150.528 37.4535 150.176 37.5404 149.782 37.6228C149.388 37.696 148.995 37.7647 148.601 37.8288C148.208 37.8837 147.851 37.934 147.53 37.9798C146.844 38.0805 146.245 38.2406 145.732 38.4603C145.219 38.68 144.821 38.9774 144.538 39.3527C144.254 39.7188 144.112 40.1764 144.112 40.7256C144.112 41.5219 144.4 42.1306 144.977 42.5516C145.563 42.9635 146.304 43.1694 147.201 43.1694ZM161.939 46.8076V25.7196H167.609V29.3991H167.829C168.213 28.0902 168.859 27.1017 169.765 26.4336C170.671 25.7563 171.714 25.4176 172.895 25.4176C173.188 25.4176 173.504 25.4359 173.842 25.4725C174.181 25.5091 174.479 25.5595 174.735 25.6235V30.8132C174.46 30.7308 174.08 30.6576 173.595 30.5935C173.11 30.5294 172.666 30.4974 172.264 30.4974C171.403 30.4974 170.634 30.685 169.957 31.0603C169.289 31.4264 168.758 31.9389 168.364 32.5979C167.98 33.2569 167.788 34.0166 167.788 34.877V46.8076H161.939ZM184.548 47.1508C182.946 47.1508 181.495 46.739 180.196 45.9152C178.905 45.0823 177.88 43.8604 177.12 42.2495C176.37 40.6295 175.994 38.6433 175.994 36.2911C175.994 33.8748 176.383 31.8657 177.161 30.264C177.939 28.6531 178.974 27.4495 180.264 26.6532C181.564 25.8478 182.987 25.4451 184.534 25.4451C185.715 25.4451 186.699 25.6464 187.486 26.0491C188.282 26.4427 188.923 26.937 189.408 27.5319C189.902 28.1177 190.277 28.6943 190.534 29.2618H190.712V18.6903H196.547V46.8076H190.781V43.4302H190.534C190.259 44.016 189.87 44.5972 189.367 45.1738C188.872 45.7413 188.227 46.2127 187.431 46.588C186.644 46.9632 185.683 47.1508 184.548 47.1508ZM186.401 42.4967C187.344 42.4967 188.14 42.2404 188.79 41.7278C189.449 41.2061 189.952 40.4785 190.3 39.5449C190.657 38.6113 190.836 37.5176 190.836 36.2636C190.836 35.0097 190.662 33.9205 190.314 32.9961C189.966 32.0717 189.463 31.3577 188.804 30.8543C188.145 30.3509 187.344 30.0992 186.401 30.0992C185.44 30.0992 184.63 30.3601 183.971 30.8818C183.312 31.4035 182.813 32.1266 182.475 33.051C182.136 33.9754 181.967 35.0463 181.967 36.2636C181.967 37.4901 182.136 38.5747 182.475 39.5174C182.822 40.451 183.321 41.1832 183.971 41.7141C184.63 42.2358 185.44 42.4967 186.401 42.4967ZM204.774 47.1646C203.868 47.1646 203.09 46.8442 202.44 46.2035C201.8 45.5537 201.479 44.7757 201.479 43.8696C201.479 42.9726 201.8 42.2038 202.44 41.5631C203.09 40.9224 203.868 40.602 204.774 40.602C205.653 40.602 206.422 40.9224 207.081 41.5631C207.74 42.2038 208.069 42.9726 208.069 43.8696C208.069 44.4737 207.914 45.0274 207.602 45.5308C207.3 46.0251 206.902 46.4232 206.408 46.7252C205.914 47.0181 205.369 47.1646 204.774 47.1646ZM217.827 46.8076H211.457L221.163 18.6903H228.824L238.517 46.8076H232.147L225.104 25.1156H224.884L217.827 46.8076ZM217.429 35.7556H232.476V40.3961H217.429V35.7556ZM247.846 18.6903V46.8076H241.901V18.6903H247.846Z" fill="url(#paint1_linear_108_819)" fill-opacity="0.12"/>
<defs>
<linearGradient id="paint0_linear_108_819" x1="26.5" y1="11.2307" x2="26.5" y2="56.6153" gradientUnits="userSpaceOnUse">
<stop stop-color="white" stop-opacity="0"/>
<stop offset="1" stop-color="white"/>
</linearGradient>
<linearGradient id="paint1_linear_108_819" x1="157.5" y1="8.80762" x2="157.5" y2="55.8076" gradientUnits="userSpaceOnUse">
<stop stop-color="white"/>
<stop offset="1" stop-color="white" stop-opacity="0"/>
</linearGradient>
</defs>
</svg>
